<svg width="153" height="53" viewBox="0 0 153 53" fill="none" xmlns="http://www.w3.org/2000/svg">
<g clip-path="url(#clip0_2_190)" filter="url(#filter0_d_2_190)">
<path d="M24.2413 8.82887L25.3118 8.60048C25.5831 8.60048 25.8115 8.65758 25.9685 8.77178C26.1255 8.88597 26.2112 9.00017 26.2112 9.10009C26.2112 9.20001 26.1826 9.35703 26.1398 9.5426C26.097 9.72817 25.6973 11.6409 24.955 15.2524C24.2127 18.8638 23.6703 21.5617 23.3277 23.3318C24.9835 21.0764 26.9249 18.3071 29.1374 15.0097C31.35 11.7123 32.649 9.52833 33.0201 8.44346C33.1343 8.10087 33.2913 7.84393 33.4769 7.65836C33.6625 7.47279 33.8338 7.3586 33.9765 7.33005C34.1192 7.3015 34.3476 7.27295 34.6474 7.27295C34.9472 7.27295 35.304 7.34432 35.718 7.4728C36.132 7.60127 36.3461 7.81538 36.3461 8.12942C36.3461 8.7004 35.4896 10.3705 33.7909 13.1112C32.0923 15.8519 30.1367 18.7639 27.9384 21.8472C25.7401 24.9305 23.913 27.3715 22.4427 29.17C22.1857 29.4841 21.8574 29.6554 21.4863 29.6554C21.1151 29.6554 20.7155 29.584 20.3015 29.4555C19.8875 29.3271 19.6734 29.0987 19.6734 28.7561C19.6734 27.6855 20.6155 22.5181 22.4998 13.2825C20.8867 15.3666 18.9311 18.2786 16.6329 22.0042C14.2348 25.8584 12.8787 28.2565 12.5647 29.17C12.3934 29.7268 12.1936 30.0551 11.9652 30.1407C11.8082 30.2121 11.6369 30.2406 11.4656 30.2406L10.3093 30.3691C10.0809 30.3691 9.88108 30.312 9.68124 30.1835C9.49567 30.0551 9.39575 29.9266 9.39575 29.7839C9.39575 29.3984 9.93819 28.2279 11.0088 26.2866C12.0794 24.3453 13.3498 22.2326 14.7915 19.9487C16.2333 17.6648 17.7321 15.4522 19.3023 13.2968C20.8725 11.1413 22.0858 9.68535 22.9423 8.95735C23.1136 8.80033 23.3134 8.72895 23.5418 8.72895L24.2413 8.82887Z" fill="#292F36"/>
<path d="M41.3993 18.5072C42.1416 18.5072 42.5127 18.7642 42.5127 19.2638C42.5127 19.535 42.4556 19.7348 42.3272 19.8633C42.1987 19.9918 41.9275 20.4057 41.5135 21.1337C41.0996 21.8475 40.6428 22.761 40.1432 23.8887C39.6435 25.0021 39.3152 25.9585 39.1725 26.7436C39.144 26.8435 39.1297 26.972 39.1297 27.1576C39.1297 27.7 39.2724 27.957 39.5722 27.957C39.872 27.957 40.2145 27.8142 40.6142 27.543C41.0139 27.2575 41.3708 26.972 41.6848 26.6437C41.9988 26.3297 42.2986 26.0013 42.5984 25.673C42.8981 25.3447 43.0695 25.1449 43.1266 25.1021C43.1837 25.0592 43.2693 25.0307 43.3835 25.0307C43.5691 25.0307 43.6833 25.1734 43.7261 25.4589C43.7689 25.7444 43.7832 26.0299 43.7832 26.3439C43.7832 26.658 43.7546 26.8578 43.6975 26.972C43.412 27.5287 42.7982 28.1996 41.8276 28.9847C40.8712 29.7698 39.9862 30.1552 39.2011 30.1552C38.416 30.1552 37.8307 29.9126 37.4738 29.4415C37.117 28.9704 36.9171 28.428 36.9171 27.857C36.9171 27.2718 37.0171 26.7722 37.2169 26.3297C36.4032 27.386 35.4754 28.271 34.4333 29.0133C33.377 29.7413 32.5348 30.1124 31.8639 30.1124C31.193 30.1124 30.6649 29.9126 30.2366 29.5129C29.6942 29.0133 29.4373 28.3281 29.4373 27.4431C29.4373 26.5581 29.6371 25.673 30.0368 24.7737C30.4365 23.8887 30.9504 23.0608 31.5927 22.3328C32.2351 21.5905 32.9488 20.9196 33.7196 20.3201C35.3326 19.0496 36.8315 18.4216 38.2018 18.4216C38.73 18.4216 39.1582 18.5072 39.4865 18.6785C39.8149 18.8498 40.029 19.0782 40.1146 19.3351C40.343 18.9783 40.5429 18.7642 40.7142 18.6642C40.8426 18.55 41.0853 18.5072 41.3993 18.5072ZM39.458 20.1345C37.7879 20.1345 36.0606 21.0624 34.2763 22.918C33.6482 23.5889 33.063 24.3741 32.5206 25.3019C31.9781 26.2297 31.7212 26.8578 31.7212 27.2004C31.7212 27.543 31.8211 27.7143 32.021 27.7143C32.2922 27.7143 33.0487 27.1719 34.3049 26.1013C35.561 25.0307 36.389 24.2313 36.7887 23.7174C37.2454 23.1464 38.1305 21.9474 39.458 20.1345Z" fill="#292F36"/>
<path d="M52.505 10.7703L53.1045 10.913C53.1901 10.913 53.2758 10.9558 53.3329 11.0415C53.4043 11.1271 53.4328 11.2128 53.4328 11.2841C53.4328 11.3555 53.3329 11.5696 53.1188 11.9122C52.9047 12.2548 52.6763 12.6402 52.3908 13.0685C52.1053 13.4967 51.9625 13.7394 51.9483 13.7822C52.7048 13.7251 53.2472 13.6965 53.5613 13.6965C53.8753 13.6965 54.0894 13.7251 54.2179 13.7679C54.3321 13.8107 54.4748 13.9392 54.6176 14.1391C54.7746 14.3389 54.9031 14.4959 55.0316 14.5958C55.16 14.6958 55.2171 14.8528 55.2171 15.0526C55.2171 15.2525 55.0887 15.438 54.846 15.5665C54.6033 15.7093 54.3321 15.7949 54.0466 15.8235C51.777 16.0518 50.5351 16.166 50.3067 16.1803C49.5216 17.3937 48.4082 19.2779 46.995 21.833C45.5818 24.3882 44.8253 26.0012 44.7396 26.6435C44.6968 26.9433 44.6825 27.1717 44.6825 27.3573C44.6825 27.7427 44.8824 27.9283 45.2821 27.9283C45.6817 27.9283 46.1242 27.7712 46.6096 27.4715C47.0949 27.1574 47.5517 26.8291 47.9514 26.4723C49.0505 25.5016 49.6358 25.002 49.7072 25.002C49.9641 25.002 50.0926 25.4445 50.0926 26.3152C50.0926 26.7863 49.8785 27.2145 49.4359 27.5999C48.451 28.4421 47.6231 29.0845 46.9522 29.5127C46.2813 29.941 45.6104 30.1551 44.9252 30.1551C44.7824 30.1551 44.6397 30.1408 44.5112 30.1123C43.7261 29.9695 43.1551 29.684 42.7983 29.2558C42.4271 28.8276 42.2559 28.2566 42.2559 27.5428C42.2559 26.8291 42.47 25.9441 42.8982 24.9163C43.3264 23.8886 43.8546 22.7894 44.497 21.6332C45.5533 19.7347 46.6096 17.9646 47.6516 16.3088L47.0949 16.3802C45.9672 16.5086 45.3106 16.5657 45.125 16.5657H44.9966C44.7111 16.5657 44.4399 16.5086 44.1829 16.3944C43.926 16.2802 43.7832 16.1375 43.7832 15.9805C43.7832 15.8092 43.8546 15.6522 43.9974 15.4951C44.1401 15.3381 44.2257 15.2096 44.2543 15.124C44.3257 14.9099 44.5826 14.6672 45.0251 14.4103C45.4676 14.1533 45.7959 14.0106 46.0243 13.9963C46.2527 13.982 46.4668 13.9678 46.681 13.9535C46.8951 13.9392 47.1235 13.9392 47.3804 13.9249C47.6374 13.9107 47.8372 13.9107 47.9799 13.8964L49.2932 13.8393C50.1068 12.6117 50.6778 11.8123 50.9776 11.4697C51.2916 11.1129 51.4629 10.9273 51.5058 10.8987C51.5486 10.8702 51.6485 10.8416 51.8055 10.8416L52.505 10.7703Z" fill="#292F36"/>
<path d="M61.2836 25.0306C61.4692 25.0306 61.5834 25.1734 61.6262 25.459C61.669 25.7445 61.6833 26.0299 61.6833 26.344C61.6833 26.658 61.6547 26.8579 61.5976 26.972C61.3121 27.5145 60.6984 28.1853 59.742 28.9704C58.7856 29.7555 57.872 30.1552 57.0155 30.1552C56.4874 30.1552 56.002 29.9982 55.5452 29.6841C55.1027 29.3701 54.8743 28.8134 54.8743 28.0283C54.8743 27.2432 55.0885 26.4581 55.5024 25.7015C53.0758 28.742 51.1915 30.2551 49.8069 30.2551C49.2644 30.2551 48.8219 30.0554 48.4794 29.67C48.1368 29.2845 47.9797 28.8848 47.9797 28.4565C47.9797 28.0426 48.0368 27.6144 48.151 27.1719C48.2652 26.7294 48.3937 26.3296 48.5222 25.9728C48.6506 25.6159 48.8505 25.1877 49.1074 24.6738C49.3644 24.1599 49.5642 23.7888 49.6784 23.5462C49.7926 23.3035 50.0067 22.9608 50.2922 22.4898C50.5777 22.0187 50.9346 21.3763 51.3913 20.577C51.8481 19.7776 52.2193 19.1781 52.519 18.7927C52.8188 18.4072 53.1043 18.2074 53.3898 18.2074C53.6753 18.2074 53.9179 18.3216 54.1321 18.55C54.3462 18.7784 54.4604 18.9782 54.4604 19.121C54.4604 19.2637 54.1321 19.9204 53.4754 21.091C51.5484 24.5882 50.5777 26.6151 50.5777 27.2004C50.5777 27.3431 50.6348 27.4145 50.7347 27.4145C51.2058 27.4145 52.3763 26.4011 54.232 24.3741C56.0877 22.3471 57.1725 21.048 57.4723 20.4771C57.7721 19.9061 58.0433 19.4207 58.3288 19.0353C58.6 18.6499 58.8141 18.4072 58.9569 18.3216C59.3708 18.0504 59.9132 17.9077 60.5842 17.8792C60.6983 17.8792 60.7697 17.8791 60.8268 17.8934C60.8839 17.9076 60.9553 17.9933 61.0267 18.136C61.098 18.2788 61.1409 18.4072 61.1409 18.5072C61.0552 18.7784 60.6698 19.5064 59.9703 20.6912C59.2852 21.876 58.8998 22.5469 58.8284 22.6896C57.6722 25.0735 57.1012 26.6294 57.1012 27.3431C57.1012 27.7571 57.2582 27.9569 57.5722 27.9569C58.1432 27.8855 58.8284 27.4288 59.6278 26.6008C59.9275 26.3011 60.213 25.9871 60.4985 25.673C60.784 25.359 60.9696 25.1734 61.0267 25.1306C61.098 25.0592 61.1837 25.0306 61.2836 25.0306Z" fill="#292F36"/>
<path d="M65.5232 21.6475C67.8214 19.0352 69.7913 17.722 71.4044 17.722C71.804 17.722 72.1324 17.8362 72.3893 18.0788C72.6462 18.3215 72.7747 18.6213 72.7747 19.0067C72.7747 19.3921 72.5035 20.0202 71.9611 20.9195C71.4186 21.8045 70.919 22.561 70.4622 23.1749C70.2196 23.4889 69.9483 23.6459 69.6343 23.6459C69.3345 23.6459 69.0919 23.5317 68.9206 23.3033C68.7493 23.0749 68.6637 22.818 68.6637 22.5182C68.6637 21.8473 69.0205 21.0765 69.7485 20.2343L69.72 20.2058C69.3916 20.2343 68.6065 20.8767 67.3218 22.1043C66.0514 23.3461 64.9665 24.4596 64.0672 25.4302C63.1822 26.4152 62.2115 27.6 61.1552 29.0131C60.8555 29.4271 60.5985 29.6412 60.3844 29.6412C60.1703 29.6412 59.8991 29.5698 59.5565 29.4414C59.2139 29.3129 58.9998 29.213 58.9284 29.1559C58.857 29.0988 58.8142 28.9989 58.8142 28.8561C58.8142 28.7276 58.857 28.5564 58.9284 28.3851C58.9998 28.1995 59.1568 27.9425 59.3566 27.6142C59.5565 27.2859 59.8848 26.7435 60.313 26.0012C60.7413 25.2589 61.3979 24.1313 62.2972 22.6324C63.1965 21.1336 63.7247 20.22 63.9102 19.906C64.2814 19.2636 64.5811 18.7926 64.8238 18.5071C65.2663 17.9504 66.0086 17.6792 67.0506 17.6792C67.279 17.6792 67.4075 17.8219 67.4075 18.1217C67.4075 18.5785 66.9792 19.4492 66.1371 20.7054L65.5232 21.6475Z" fill="#292F36"/>
<path d="M81.2681 18.6785C81.2681 19.3209 81.0112 19.8919 80.483 20.3772C79.9549 20.8625 79.3696 21.1052 78.6987 21.1052C78.4846 21.1052 78.3419 21.0481 78.2705 20.9482C78.1991 20.8483 78.1705 20.7055 78.1705 20.5485C78.1705 20.3915 78.1848 20.2202 78.2277 20.0631C77.8708 20.1773 77.4854 20.3629 77.0571 20.6056C76.6289 20.8482 76.1007 21.2051 75.4727 21.6904C74.8446 22.1758 74.5306 22.5184 74.5306 22.761C74.5306 22.8324 74.6447 22.8752 74.8731 22.8752C75.1015 22.8752 75.4584 22.7896 75.9295 22.6326C76.4005 22.4755 76.7431 22.3899 76.9287 22.3899C77.1142 22.3899 77.2427 22.4042 77.2998 22.4184C77.4283 22.4898 77.5568 22.6326 77.7138 22.861C77.8565 23.0894 77.9279 23.2749 77.9279 23.4034C77.9279 23.5319 77.7994 23.7032 77.5425 23.9173C77.2855 24.1314 77 24.2884 76.686 24.4026C76.3577 24.5168 76.1436 24.6025 76.0437 24.6595C73.9881 25.8158 72.9603 26.6009 72.9603 27.0291C72.9603 27.7857 73.6027 28.1711 74.9017 28.1711C75.7296 28.1711 76.5718 27.9141 77.3997 27.386C78.1135 26.9435 78.7558 26.4867 79.3268 26.0156C79.8978 25.5588 80.2546 25.2734 80.4117 25.1592C80.5687 25.045 80.6829 25.0021 80.7543 25.0021C81.0112 25.0021 81.1397 25.2876 81.1397 25.8586C81.1397 26.4296 81.1111 26.8007 81.0397 26.972C80.9684 27.1576 80.7828 27.3717 80.4545 27.6429C78.3704 29.3416 76.3862 30.1981 74.5306 30.1981C73.5313 30.1981 72.7462 30.0553 72.1467 29.7841C71.0476 29.2845 70.5051 28.528 70.5051 27.5002C70.5051 26.1584 71.433 25.1306 73.3029 24.4454C72.9318 24.2741 72.6891 24.0743 72.5892 23.8031C72.475 23.5461 72.4322 23.1322 72.4322 22.5612C72.4322 21.9902 72.7034 21.3907 73.2316 20.7483C73.7597 20.106 74.4163 19.5778 75.1872 19.1781C76.9001 18.2503 78.4418 17.7935 79.7836 17.7935C80.1119 17.7935 80.4259 17.8649 80.7685 18.0219C81.1111 18.1789 81.2681 18.393 81.2681 18.6785Z" fill="#292F36"/>
<path d="M114.585 8.7435H114.77C114.828 8.7435 114.87 8.7435 114.885 8.75777C114.899 8.77204 114.913 8.77205 114.942 8.78632C114.97 8.78632 114.985 8.80059 115.013 8.82914C115.056 8.87197 115.127 8.91479 115.213 8.95761C115.327 9.04326 115.384 9.14318 115.384 9.25738C115.384 9.37158 115.27 9.61424 115.042 9.98538C114.813 10.3565 114.228 11.2558 113.272 12.7118C111.088 16.052 109.132 19.1639 107.405 22.0188C104.421 26.9863 102.908 29.4844 102.88 29.5129C102.851 29.5415 102.837 29.57 102.823 29.5986C102.808 29.6557 102.78 29.6842 102.708 29.6842L102.509 29.6414L102.109 29.7413L101.881 29.6985L101.638 29.7413H101.552L100.739 29.8555C100.253 29.8555 100.011 29.6842 100.011 29.3559C100.011 29.2132 100.053 29.0419 100.139 28.842C100.439 28.1283 101.966 25.5446 104.707 21.0624C102.908 21.1052 101.124 21.1338 99.3682 21.1338L96.2278 21.1195C95.7139 21.9474 95.0002 23.1179 94.1009 24.6453C92.1596 27.9713 91.1318 29.6414 91.0033 29.6699C90.8749 29.6985 90.7749 29.727 90.6893 29.727C90.6036 29.727 90.5323 29.6842 90.4752 29.5843C90.4038 29.4987 90.361 29.4415 90.3324 29.4415C90.3039 29.4415 90.261 29.4558 90.1754 29.4986C90.104 29.5415 89.9898 29.5557 89.8328 29.5557L89.4902 29.5415L89.3618 29.4558C89.3475 29.4558 89.3332 29.4701 89.3189 29.4986C89.3047 29.5272 89.2618 29.5415 89.2047 29.5415C88.7908 29.5415 88.5767 29.3702 88.5767 29.0133C88.5767 28.7849 88.6623 28.4709 88.8193 28.0855C88.9906 27.7001 89.2047 27.2861 89.476 26.8436C89.7472 26.4011 90.4323 25.3305 91.56 23.6604C92.6734 21.9902 93.2302 21.148 93.2302 21.1338C93.0446 21.1195 92.8305 21.1195 92.5878 21.1052C92.0882 21.1052 91.7456 21.0909 91.5315 21.0481C90.9748 20.9482 90.5894 20.4914 90.3895 19.6778C90.2753 19.2781 90.2325 19.0211 90.2468 18.8927C90.2468 18.6357 90.361 18.493 90.5894 18.493L90.9748 18.5929C91.1746 18.6072 91.6314 18.6215 92.3737 18.6643C93.116 18.7071 93.6441 18.7214 93.9724 18.7214L94.8004 18.6928C96.0708 16.7087 97.5839 14.4533 99.3539 11.941C98.0692 12.9973 96.6418 13.5254 95.0716 13.5254C94.3293 13.5254 93.6869 13.3541 93.1588 12.9973C92.6163 12.6404 92.3594 12.1836 92.3594 11.6412C92.3594 11.0988 92.5593 10.6705 92.9732 10.3422C93.3872 10.0282 93.7726 9.87118 94.1437 9.87118C94.5149 9.87118 94.7004 9.92828 94.7004 10.0425C94.7004 10.0853 94.6433 10.1281 94.5434 10.1709C94.4435 10.228 94.3864 10.2709 94.3864 10.3137C94.3864 10.4707 94.5577 10.6134 94.9003 10.7276C95.2429 10.8418 95.6283 10.9132 96.0565 10.9132C96.4847 10.9132 96.9986 10.7847 97.6267 10.5421C98.2548 10.2994 98.8971 9.97111 99.568 9.58569C100.51 9.04326 101.252 8.58647 101.795 8.22961C102.109 8.07259 102.394 8.00122 102.68 8.00122C102.965 8.00122 103.151 8.02977 103.279 8.10114C103.408 8.15824 103.494 8.22961 103.551 8.28671C103.608 8.34381 103.679 8.42946 103.736 8.52938C103.808 8.6293 103.865 8.71495 103.936 8.75777C103.993 8.81487 104.036 8.87197 104.036 8.94334C104.036 9.01471 103.993 9.11463 103.922 9.27165C103.85 9.4144 103.479 10.0139 102.808 11.056C102.138 12.098 101.267 13.4255 100.21 15.0385C99.1541 16.6516 98.3833 17.8364 97.8979 18.6072C100.51 18.6072 103.322 18.5644 106.348 18.4644C110.031 12.6547 111.973 9.61424 112.172 9.32875C112.372 9.04326 112.558 8.85769 112.729 8.77204C112.9 8.6864 113.1 8.64357 113.343 8.64357L114.585 8.7435Z" fill="#292F36"/>
<path d="M119.353 18.4786C119.652 18.4786 119.952 18.6071 120.252 18.8783C120.566 19.1495 120.709 19.5492 120.709 20.0916C120.709 20.634 120.523 21.3335 120.138 22.2042C119.752 23.0607 119.238 23.9457 118.567 24.845C117.911 25.7301 117.169 26.5723 116.383 27.3574C115.584 28.1425 114.728 28.7848 113.814 29.2844C112.886 29.784 112.058 30.041 111.302 30.041C110.545 30.041 109.946 29.7983 109.489 29.3272C109.032 28.8562 108.804 28.1995 108.804 27.3574C108.804 26.5152 109.018 25.573 109.432 24.5595C109.846 23.5318 110.374 22.6325 111.031 21.8474C111.687 21.0623 112.387 20.3628 113.157 19.7347C114.742 18.45 116.141 17.822 117.34 17.822C117.882 17.822 118.282 17.9504 118.553 18.2217C118.653 18.3073 118.696 18.3929 118.696 18.45V18.5357C118.853 18.4786 119.067 18.4786 119.353 18.4786ZM117.882 20.4199H117.782C117.44 20.4199 117.268 20.1773 117.268 19.6777C116.555 19.906 115.813 20.32 115.027 20.9053C114.242 21.4905 113.543 22.19 112.929 22.9893C111.673 24.5881 111.045 25.9442 111.031 27.0433C111.031 27.5857 111.23 27.857 111.63 27.857C112.03 27.857 112.629 27.5857 113.414 27.0719C114.199 26.558 114.985 25.8014 115.77 24.8165C116.541 23.8458 117.126 22.9893 117.511 22.2756C117.897 21.5619 118.096 21.0766 118.096 20.8053C118.082 20.5484 118.011 20.4199 117.882 20.4199Z" fill="#292F36"/>
<path d="M120.395 29.7125L119.681 29.684H119.424C119.324 29.6554 119.224 29.5983 119.11 29.5127C118.996 29.427 118.91 29.3557 118.853 29.3271C118.796 29.2986 118.767 29.2129 118.767 29.113C118.767 29.0131 118.81 28.8275 118.882 28.5848C120.78 24.4024 122.621 21.0479 124.406 18.5498C124.606 18.2786 124.92 18.0645 125.348 17.9217C125.776 17.779 126.204 17.7076 126.618 17.7076C126.861 17.7076 126.989 17.8932 126.989 18.2786C126.989 18.3928 126.947 18.5356 126.875 18.7069C126.804 18.8924 126.604 19.1779 126.29 19.5919C125.976 20.0058 125.605 20.4769 125.177 20.9908C124.748 21.5047 124.506 21.8187 124.449 21.9043C125.79 20.5197 126.989 19.492 128.074 18.8068C129.159 18.1359 129.93 17.7933 130.415 17.7933C130.901 17.7933 131.272 17.936 131.529 18.2072C131.786 18.4785 131.914 18.7782 131.914 19.0923C131.914 19.4063 131.886 19.6775 131.843 19.8774C131.8 20.0915 131.714 20.3056 131.6 20.534C131.486 20.7624 131.386 20.9622 131.3 21.1192C131.215 21.2763 131.072 21.4904 130.886 21.7473C130.687 22.0043 130.558 22.1898 130.487 22.2898C130.415 22.3897 130.258 22.5752 130.03 22.8465C129.802 23.1177 129.673 23.2747 129.659 23.3032C129.93 23.032 130.315 22.6323 130.801 22.0899C131.286 21.5475 131.7 21.105 132.043 20.7481C132.385 20.3912 132.799 19.9773 133.313 19.5205C133.827 19.0637 134.298 18.6926 134.726 18.4214C135.783 17.7647 136.853 17.4221 137.938 17.4221C138.309 17.4221 138.623 17.5363 138.88 17.779C139.137 18.0217 139.266 18.2929 139.266 18.6212C139.266 18.9495 138.866 19.7346 138.081 20.9622C137.296 22.1898 136.496 23.4317 135.711 24.6736C134.926 25.9155 134.526 26.7006 134.526 27.0289C134.526 27.4714 134.612 27.7426 134.769 27.8283C134.94 27.9139 135.14 27.9425 135.369 27.9282C135.597 27.9139 135.94 27.7569 136.354 27.4714C136.782 27.1859 137.153 26.9004 137.481 26.5864C138.024 26.1011 138.509 25.63 138.98 25.1732C139.08 25.0876 139.18 25.0447 139.308 25.0447C139.494 25.0447 139.608 25.1875 139.651 25.473C139.694 25.7585 139.708 26.044 139.708 26.358C139.708 26.672 139.68 26.8719 139.622 26.9861C139.337 27.5285 138.709 28.1994 137.752 28.9988C136.782 29.7839 135.854 30.1836 134.969 30.1836C134.855 30.1836 134.783 30.1836 134.741 30.1693C133.741 30.0694 133.042 29.7982 132.656 29.3414C132.271 28.8846 132.085 28.3422 132.085 27.7284C132.085 27.1146 132.3 26.3437 132.728 25.4587C133.156 24.5737 133.613 23.76 134.127 23.0463C134.641 22.3326 135.097 21.676 135.526 21.0907C135.954 20.5054 136.168 20.1914 136.168 20.1486C136.168 20.1058 136.125 20.0772 136.054 20.0772C135.754 20.0772 135.083 20.5625 134.027 21.5475C132.242 23.2176 130.701 24.8306 129.402 26.3723C129.059 26.7862 128.246 27.814 126.975 29.4841C126.832 29.684 126.59 29.7839 126.276 29.7839C125.962 29.7839 125.633 29.7268 125.291 29.5983C124.948 29.4698 124.777 29.3128 124.777 29.1273C124.777 29.0273 125.548 27.657 127.104 25.0162C128.66 22.3754 129.43 20.9337 129.43 20.7053C129.43 20.4626 129.288 20.3484 129.002 20.3484C128.717 20.3484 128.117 20.7767 127.218 21.6331C124.748 23.9884 122.836 26.3437 121.48 28.6705C121.394 28.8132 121.223 29.0273 120.966 29.3128C120.709 29.5983 120.48 29.7125 120.395 29.7125Z" fill="#292F36"/>
<path d="M148.701 18.6785C148.701 19.3209 148.444 19.8919 147.916 20.3772C147.388 20.8625 146.802 21.1052 146.132 21.1052C145.917 21.1052 145.775 21.0481 145.703 20.9482C145.632 20.8483 145.603 20.7055 145.603 20.5485C145.603 20.3915 145.618 20.2202 145.66 20.0631C145.304 20.1773 144.918 20.3629 144.49 20.6056C144.062 20.8482 143.534 21.2051 142.906 21.6904C142.277 22.1758 141.963 22.5184 141.963 22.761C141.963 22.8324 142.078 22.8752 142.306 22.8752C142.534 22.8752 142.891 22.7896 143.362 22.6326C143.833 22.4755 144.176 22.3899 144.362 22.3899C144.547 22.3899 144.676 22.4042 144.733 22.4184C144.861 22.4898 144.99 22.6326 145.147 22.861C145.289 23.0894 145.361 23.2749 145.361 23.4034C145.361 23.5319 145.232 23.7032 144.975 23.9173C144.718 24.1314 144.433 24.2884 144.119 24.4026C143.791 24.5168 143.576 24.6025 143.476 24.6595C141.421 25.8158 140.393 26.6009 140.393 27.0291C140.393 27.7857 141.036 28.1711 142.335 28.1711C143.162 28.1711 144.005 27.9141 144.833 27.386C145.546 26.9435 146.189 26.4867 146.76 26.0156C147.331 25.5588 147.687 25.2734 147.845 25.1592C148.002 25.045 148.116 25.0021 148.187 25.0021C148.444 25.0021 148.573 25.2876 148.573 25.8586C148.573 26.4296 148.544 26.8007 148.473 26.972C148.401 27.1576 148.216 27.3717 147.887 27.6429C145.803 29.3416 143.819 30.1981 141.963 30.1981C140.964 30.1981 140.179 30.0553 139.58 29.7841C138.48 29.2845 137.938 28.528 137.938 27.5002C137.938 26.1584 138.866 25.1306 140.736 24.4454C140.365 24.2741 140.122 24.0743 140.022 23.8031C139.908 23.5461 139.865 23.1322 139.865 22.5612C139.865 21.9902 140.136 21.3907 140.664 20.7483C141.193 20.106 141.849 19.5778 142.62 19.1781C144.333 18.2503 145.875 17.7935 147.216 17.7935C147.545 17.7935 147.859 17.8649 148.201 18.0219C148.544 18.1789 148.701 18.393 148.701 18.6785Z" fill="#292F36"/>
<path d="M4 33.6665C7.7542 35.2367 11.5798 36.4501 15.4767 37.3779C19.3451 38.3486 23.2849 39.0338 27.2247 39.462C29.1946 39.7332 31.1787 39.7618 33.1343 39.9473C35.1185 39.9616 37.0884 40.1186 39.0583 40.0044L42.0131 39.9331C42.998 39.9188 43.983 39.7903 44.9679 39.7332C45.9529 39.6476 46.9378 39.6047 47.9085 39.4763L50.8347 39.0623C54.7602 38.6341 58.5715 37.7205 62.3686 36.6214C66.2084 35.565 69.8342 34.1661 73.674 32.7101C77.5995 31.2684 81.8533 30.3263 86.1642 30.7831C88.2911 31.0543 90.4323 31.7395 92.1738 32.9956C93.9296 34.2375 95.1857 36.0076 95.9851 37.8632C94.786 36.2074 93.2872 34.8513 91.56 34.0091C89.8328 33.1669 87.9343 32.8243 86.05 32.8814C82.2387 32.9385 78.4845 34.209 74.9587 35.8077C71.3758 37.5778 67.4931 39.1765 63.5819 40.504C59.6421 41.7745 55.5739 42.788 51.4485 43.3018C43.2407 44.3867 34.833 44.401 26.7251 42.7594C22.6568 42.0171 18.6885 40.8609 14.8486 39.3906C11.0373 37.8632 7.31169 36.0789 4 33.6665Z" fill="#292F36"/>
<path d="M140.507 9.89958C137.324 8.5435 134.084 7.48718 130.801 6.65926C127.532 5.78851 124.22 5.17471 120.894 4.74648C119.238 4.48953 117.554 4.43244 115.898 4.23259C114.228 4.18977 112.572 4.01847 110.902 4.08985C110.074 4.10412 109.232 4.10412 108.404 4.08985C107.576 4.08985 106.734 4.17549 105.906 4.20404C105.078 4.26114 104.236 4.27542 103.408 4.36106L100.924 4.66083C97.5982 4.93204 94.3722 5.61722 91.1461 6.45942C87.8773 7.24452 84.7797 8.35793 81.4823 9.47135C78.0992 10.599 74.4306 11.2842 70.7478 10.7703C68.9349 10.4706 67.1078 9.82821 65.6661 8.68624C64.1958 7.55856 63.1966 6.01691 62.5828 4.40388C63.5963 5.81706 64.8524 6.9733 66.2942 7.68703C67.7359 8.40076 69.3203 8.70052 70.9048 8.68624C74.1023 8.68624 77.2713 7.65848 80.2689 6.37377C83.3237 4.91777 86.6782 3.63306 90.0184 2.57675C93.3872 1.56325 96.8987 0.792427 100.41 0.42129C107.419 -0.320986 114.585 -0.149691 121.451 1.47761C124.891 2.20561 128.246 3.31902 131.457 4.68938C134.683 6.08828 137.795 7.71558 140.507 9.89958Z" fill="#292F36"/>
</g>
<defs>
<filter id="filter0_d_2_190" x="0" y="0" width="153" height="53" filterUnits="userSpaceOnUse" color-interpolation-filters="sRGB">
<feFlood flood-opacity="0" result="BackgroundImageFix"/>
<feColorMatrix in="SourceAlpha" type="matrix" values="0 0 0 0 0 0 0 0 0 0 0 0 0 0 0 0 0 0 127 0" result="hardAlpha"/>
<feOffset dy="4"/>
<feGaussianBlur stdDeviation="2"/>
<feComposite in2="hardAlpha" operator="out"/>
<feColorMatrix type="matrix" values="0 0 0 0 0 0 0 0 0 0 0 0 0 0 0 0 0 0 0.25 0"/>
<feBlend mode="normal" in2="BackgroundImageFix" result="effect1_dropShadow_2_190"/>
<feBlend mode="normal" in="SourceGraphic" in2="effect1_dropShadow_2_190" result="shape"/>
</filter>
<clipPath id="clip0_2_190">
<rect width="145" height="45" fill="white" transform="translate(4)"/>
</clipPath>
</defs>
</svg>
